<svg width="74" height="74" viewBox="0 0 74 74" fill="none" xmlns="http://www.w3.org/2000/svg">
<path fill-rule="evenodd" clip-rule="evenodd" d="M6.16654 66.6001C7.7082 67.5251 9.24987 67.8334 10.7915 67.8334H63.2082C65.6749 67.8334 67.8332 66.9084 69.3749 65.0584C71.2249 63.5167 72.1499 61.0501 72.1499 58.5834C72.1499 57.0417 71.8415 55.5001 70.9165 53.9584L45.0165 10.4834C43.4749 8.32507 41.6249 6.7834 39.1582 6.16673C36.6915 5.55007 34.2249 5.8584 32.0665 7.09173C30.8332 7.7084 29.5999 8.94173 28.9832 10.1751L2.77487 53.9584C0.308202 58.2751 1.84987 64.1334 6.16654 66.6001ZM8.32487 57.0417L34.2249 13.5667C34.5332 12.9501 34.8415 12.6417 35.4582 12.3334C36.9999 11.7167 38.8499 12.0251 39.7749 13.5667L65.6749 57.0417C65.9832 57.6584 65.9832 57.9667 65.9832 58.5834C65.9832 59.5084 65.6749 60.1251 65.0582 60.7417C64.4415 61.3584 63.8249 61.6667 62.8999 61.6667H10.7915C10.4832 61.6667 9.86654 61.6667 9.5582 61.3584C8.01653 60.4334 7.39987 58.5834 8.32487 57.0417ZM40.0832 40.0834V27.7501C40.0832 25.9001 38.8499 24.6667 36.9999 24.6667C35.1499 24.6667 33.9165 25.9001 33.9165 27.7501V40.0834C33.9165 41.9334 35.1499 43.1667 36.9999 43.1667C38.8499 43.1667 40.0832 41.9334 40.0832 40.0834ZM40.0832 52.4167C40.0832 53.3417 39.7749 53.9584 39.1582 54.5751C38.5415 55.1917 37.9249 55.5001 36.6915 55.5001C35.7665 55.5001 35.1499 55.1917 34.5332 54.5751C33.9165 53.9584 33.6082 53.3417 33.6082 52.4167C33.6082 52.0555 33.714 51.8001 33.8017 51.5885C33.8636 51.4388 33.9165 51.3111 33.9165 51.1834C33.9165 50.8751 34.2249 50.5667 34.5332 50.2584C34.8415 49.9501 35.1499 49.6417 35.4582 49.6417C36.0749 49.3334 36.6915 49.3334 37.3082 49.3334C37.4855 49.5107 37.5609 49.5861 37.6515 49.6181C37.7185 49.6417 37.7938 49.6417 37.9249 49.6417C38.079 49.6417 38.1561 49.7188 38.2332 49.7959C38.3103 49.873 38.3874 49.9501 38.5415 49.9501C38.8499 49.9501 39.1582 50.2584 39.1582 50.2584C39.4665 50.5667 39.7749 50.8751 39.7749 51.1834C40.0832 51.4917 40.0832 52.1084 40.0832 52.4167Z" fill="black"/>
<mask id="mask0_152_10164" style="mask-type:luminance" maskUnits="userSpaceOnUse" x="1" y="5" width="72" height="63">
<path fill-rule="evenodd" clip-rule="evenodd" d="M6.16654 66.6001C7.7082 67.5251 9.24987 67.8334 10.7915 67.8334H63.2082C65.6749 67.8334 67.8332 66.9084 69.3749 65.0584C71.2249 63.5167 72.1499 61.0501 72.1499 58.5834C72.1499 57.0417 71.8415 55.5001 70.9165 53.9584L45.0165 10.4834C43.4749 8.32507 41.6249 6.7834 39.1582 6.16673C36.6915 5.55007 34.2249 5.8584 32.0665 7.09173C30.8332 7.7084 29.5999 8.94173 28.9832 10.1751L2.77487 53.9584C0.308202 58.2751 1.84987 64.1334 6.16654 66.6001ZM8.32487 57.0417L34.2249 13.5667C34.5332 12.9501 34.8415 12.6417 35.4582 12.3334C36.9999 11.7167 38.8499 12.0251 39.7749 13.5667L65.6749 57.0417C65.9832 57.6584 65.9832 57.9667 65.9832 58.5834C65.9832 59.5084 65.6749 60.1251 65.0582 60.7417C64.4415 61.3584 63.8249 61.6667 62.8999 61.6667H10.7915C10.4832 61.6667 9.86654 61.6667 9.5582 61.3584C8.01653 60.4334 7.39987 58.5834 8.32487 57.0417ZM40.0832 40.0834V27.7501C40.0832 25.9001 38.8499 24.6667 36.9999 24.6667C35.1499 24.6667 33.9165 25.9001 33.9165 27.7501V40.0834C33.9165 41.9334 35.1499 43.1667 36.9999 43.1667C38.8499 43.1667 40.0832 41.9334 40.0832 40.0834ZM40.0832 52.4167C40.0832 53.3417 39.7749 53.9584 39.1582 54.5751C38.5415 55.1917 37.9249 55.5001 36.6915 55.5001C35.7665 55.5001 35.1499 55.1917 34.5332 54.5751C33.9165 53.9584 33.6082 53.3417 33.6082 52.4167C33.6082 52.0555 33.714 51.8001 33.8017 51.5885C33.8636 51.4388 33.9165 51.3111 33.9165 51.1834C33.9165 50.8751 34.2249 50.5667 34.5332 50.2584C34.8415 49.9501 35.1499 49.6417 35.4582 49.6417C36.0749 49.3334 36.6915 49.3334 37.3082 49.3334C37.4855 49.5107 37.5609 49.5861 37.6515 49.6181C37.7185 49.6417 37.7938 49.6417 37.9249 49.6417C38.079 49.6417 38.1561 49.7188 38.2332 49.7959C38.3103 49.873 38.3874 49.9501 38.5415 49.9501C38.8499 49.9501 39.1582 50.2584 39.1582 50.2584C39.4665 50.5667 39.7749 50.8751 39.7749 51.1834C40.0832 51.4917 40.0832 52.1084 40.0832 52.4167Z" fill="white"/>
</mask>
<g mask="url(#mask0_152_10164)">
<rect width="74" height="74" fill="#FF9F43"/>
</g>
</svg>
