<svg width="20" height="20" viewBox="0 0 20 20" fill="none" xmlns="http://www.w3.org/2000/svg">
<path d="M13.0834 14.4167C13.4167 14.7501 13.4167 15.2501 13.0834 15.5834C12.9167 15.7501 12.75 15.8334 12.5 15.8334C12.25 15.8334 12.0834 15.7501 11.9167 15.5834L6.91669 10.5834C6.58335 10.2501 6.58335 9.75008 6.91669 9.41675L11.9167 4.41675C12.25 4.08341 12.75 4.08341 13.0834 4.41675C13.4167 4.75008 13.4167 5.25008 13.0834 5.58341L8.66669 10.0001L13.0834 14.4167Z" fill="black"/>
<mask id="mask0_6_2723" style="mask-type:luminance" maskUnits="userSpaceOnUse" x="6" y="4" width="8" height="12">
<path d="M13.0834 14.4167C13.4167 14.7501 13.4167 15.2501 13.0834 15.5834C12.9167 15.7501 12.75 15.8334 12.5 15.8334C12.25 15.8334 12.0834 15.7501 11.9167 15.5834L6.91669 10.5834C6.58335 10.2501 6.58335 9.75008 6.91669 9.41675L11.9167 4.41675C12.25 4.08341 12.75 4.08341 13.0834 4.41675C13.4167 4.75008 13.4167 5.25008 13.0834 5.58341L8.66669 10.0001L13.0834 14.4167Z" fill="white"/>
</mask>
<g mask="url(#mask0_6_2723)">
<rect width="20" height="20" fill="#7367F0"/>
</g>
</svg>
