<svg width="20" height="20" viewBox="0 0 20 20" fill="none" xmlns="http://www.w3.org/2000/svg">
<path d="M15.5834 14.4167C15.9167 14.75 15.9167 15.25 15.5834 15.5834C15.4167 15.75 15.25 15.8334 15 15.8334C14.75 15.8334 14.5834 15.75 14.4167 15.5834L10 11.1667L5.58335 15.5834C5.41669 15.75 5.25002 15.8334 5.00002 15.8334C4.75002 15.8334 4.58335 15.75 4.41669 15.5834C4.08335 15.25 4.08335 14.75 4.41669 14.4167L8.83335 10L4.41669 5.58335C4.08335 5.25002 4.08335 4.75002 4.41669 4.41669C4.75002 4.08335 5.25002 4.08335 5.58335 4.41669L10 8.83335L14.4167 4.41669C14.75 4.08335 15.25 4.08335 15.5834 4.41669C15.9167 4.75002 15.9167 5.25002 15.5834 5.58335L11.1667 10L15.5834 14.4167Z" fill="black"/>
<mask id="mask0_22_2976" style="mask-type:luminance" maskUnits="userSpaceOnUse" x="4" y="4" width="12" height="12">
<path d="M15.5834 14.4167C15.9167 14.75 15.9167 15.25 15.5834 15.5834C15.4167 15.75 15.25 15.8334 15 15.8334C14.75 15.8334 14.5834 15.75 14.4167 15.5834L10 11.1667L5.58335 15.5834C5.41669 15.75 5.25002 15.8334 5.00002 15.8334C4.75002 15.8334 4.58335 15.75 4.41669 15.5834C4.08335 15.25 4.08335 14.75 4.41669 14.4167L8.83335 10L4.41669 5.58335C4.08335 5.25002 4.08335 4.75002 4.41669 4.41669C4.75002 4.08335 5.25002 4.08335 5.58335 4.41669L10 8.83335L14.4167 4.41669C14.75 4.08335 15.25 4.08335 15.5834 4.41669C15.9167 4.75002 15.9167 5.25002 15.5834 5.58335L11.1667 10L15.5834 14.4167Z" fill="white"/>
</mask>
<g mask="url(#mask0_22_2976)">
<rect width="20" height="20" fill="#5E5873"/>
</g>
</svg>
