<svg width="15" height="15" viewBox="0 0 15 15" fill="none" xmlns="http://www.w3.org/2000/svg">
<path fill-rule="evenodd" clip-rule="evenodd" d="M10.4375 1.4375L13.5625 4.5625C13.8125 4.8125 13.8125 5.1875 13.5625 5.4375L5.4375 13.5625C5.3125 13.6875 5.1875 13.75 5 13.75H1.875C1.5 13.75 1.25 13.5 1.25 13.125V10C1.25 9.8125 1.3125 9.6875 1.4375 9.5625L9.5625 1.4375C9.8125 1.1875 10.1875 1.1875 10.4375 1.4375ZM2.5 12.5H4.75L12.25 5L10 2.75L2.5 10.25V12.5Z" fill="black"/>
<mask id="mask0_554_13319" style="mask-type:luminance" maskUnits="userSpaceOnUse" x="1" y="1" width="13" height="13">
<path fill-rule="evenodd" clip-rule="evenodd" d="M10.4375 1.4375L13.5625 4.5625C13.8125 4.8125 13.8125 5.1875 13.5625 5.4375L5.4375 13.5625C5.3125 13.6875 5.1875 13.75 5 13.75H1.875C1.5 13.75 1.25 13.5 1.25 13.125V10C1.25 9.8125 1.3125 9.6875 1.4375 9.5625L9.5625 1.4375C9.8125 1.1875 10.1875 1.1875 10.4375 1.4375ZM2.5 12.5H4.75L12.25 5L10 2.75L2.5 10.25V12.5Z" fill="white"/>
</mask>
<g mask="url(#mask0_554_13319)">
<rect width="15" height="15" fill="#6E6B7B"/>
</g>
</svg>
