<svg width="15" height="15" viewBox="0 0 15 15" fill="none" xmlns="http://www.w3.org/2000/svg">
<path fill-rule="evenodd" clip-rule="evenodd" d="M7.5 1.875C12.1973 1.875 14.8278 7 14.953 7.25C15.0157 7.375 15.0157 7.625 14.953 7.75C14.8278 8 12.1973 13.125 7.5 13.125C3.07867 13.125 0.488432 8.58447 0.094898 7.89463C0.0703362 7.85157 0.0543315 7.82351 0.0469729 7.8125C-0.0156576 7.625 -0.0156576 7.4375 0.0469729 7.25C0.172234 7 2.80271 1.875 7.5 1.875ZM1.29958 7.5C1.92589 8.5 4.11795 11.875 7.5 11.875C10.882 11.875 13.0741 8.5 13.7004 7.5C13.0741 6.5 10.882 3.125 7.5 3.125C4.11795 3.125 1.86326 6.5 1.29958 7.5ZM7.5 5C6.12213 5 4.99478 6.125 4.99478 7.5C4.99478 8.875 6.12213 10 7.5 10C8.87787 10 10.0052 8.875 10.0052 7.5C10.0052 6.125 8.87787 5 7.5 5ZM6.24739 7.5C6.24739 8.1875 6.81107 8.75 7.5 8.75C8.18894 8.75 8.75261 8.1875 8.75261 7.5C8.75261 6.8125 8.18894 6.25 7.5 6.25C6.81107 6.25 6.24739 6.8125 6.24739 7.5Z" fill="black"/>
<mask id="mask0_554_13328" style="mask-type:luminance" maskUnits="userSpaceOnUse" x="0" y="1" width="15" height="13">
<path fill-rule="evenodd" clip-rule="evenodd" d="M7.5 1.875C12.1973 1.875 14.8278 7 14.953 7.25C15.0157 7.375 15.0157 7.625 14.953 7.75C14.8278 8 12.1973 13.125 7.5 13.125C3.07867 13.125 0.488432 8.58447 0.094898 7.89463C0.0703362 7.85157 0.0543315 7.82351 0.0469729 7.8125C-0.0156576 7.625 -0.0156576 7.4375 0.0469729 7.25C0.172234 7 2.80271 1.875 7.5 1.875ZM1.29958 7.5C1.92589 8.5 4.11795 11.875 7.5 11.875C10.882 11.875 13.0741 8.5 13.7004 7.5C13.0741 6.5 10.882 3.125 7.5 3.125C4.11795 3.125 1.86326 6.5 1.29958 7.5ZM7.5 5C6.12213 5 4.99478 6.125 4.99478 7.5C4.99478 8.875 6.12213 10 7.5 10C8.87787 10 10.0052 8.875 10.0052 7.5C10.0052 6.125 8.87787 5 7.5 5ZM6.24739 7.5C6.24739 8.1875 6.81107 8.75 7.5 8.75C8.18894 8.75 8.75261 8.1875 8.75261 7.5C8.75261 6.8125 8.18894 6.25 7.5 6.25C6.81107 6.25 6.24739 6.8125 6.24739 7.5Z" fill="white"/>
</mask>
<g mask="url(#mask0_554_13328)">
<rect width="15" height="15" fill="#6E6B7B"/>
</g>
</svg>
