<svg width="18" height="18" viewBox="0 0 18 18" fill="none" xmlns="http://www.w3.org/2000/svg">
<path fill-rule="evenodd" clip-rule="evenodd" d="M9 5.25C9.825 5.25 10.5 4.575 10.5 3.75C10.5 2.925 9.825 2.25 9 2.25C8.175 2.25 7.5 2.925 7.5 3.75C7.5 4.575 8.175 5.25 9 5.25ZM10.5 9C10.5 9.825 9.825 10.5 9 10.5C8.175 10.5 7.5 9.825 7.5 9C7.5 8.175 8.175 7.5 9 7.5C9.825 7.5 10.5 8.175 10.5 9ZM7.5 14.25C7.5 13.425 8.175 12.75 9 12.75C9.825 12.75 10.5 13.425 10.5 14.25C10.5 15.075 9.825 15.75 9 15.75C8.175 15.75 7.5 15.075 7.5 14.25Z" fill="black"/>
<mask id="mask0_549_11796" style="mask-type:luminance" maskUnits="userSpaceOnUse" x="7" y="2" width="4" height="14">
<path fill-rule="evenodd" clip-rule="evenodd" d="M9 5.25C9.825 5.25 10.5 4.575 10.5 3.75C10.5 2.925 9.825 2.25 9 2.25C8.175 2.25 7.5 2.925 7.5 3.75C7.5 4.575 8.175 5.25 9 5.25ZM10.5 9C10.5 9.825 9.825 10.5 9 10.5C8.175 10.5 7.5 9.825 7.5 9C7.5 8.175 8.175 7.5 9 7.5C9.825 7.5 10.5 8.175 10.5 9ZM7.5 14.25C7.5 13.425 8.175 12.75 9 12.75C9.825 12.75 10.5 13.425 10.5 14.25C10.5 15.075 9.825 15.75 9 15.75C8.175 15.75 7.5 15.075 7.5 14.25Z" fill="white"/>
</mask>
<g mask="url(#mask0_549_11796)">
<rect width="18" height="18" fill="#5E5873"/>
</g>
</svg>
