<svg width="15" height="15" viewBox="0 0 15 15" fill="none" xmlns="http://www.w3.org/2000/svg">
<path fill-rule="evenodd" clip-rule="evenodd" d="M13.125 3.125H10.625V2.5C10.625 1.4375 9.8125 0.625 8.75 0.625H6.25C5.1875 0.625 4.375 1.4375 4.375 2.5V3.125H1.875C1.5 3.125 1.25 3.375 1.25 3.75C1.25 4.125 1.5 4.375 1.875 4.375H2.5V12.5C2.5 13.5625 3.3125 14.375 4.375 14.375H10.625C11.6875 14.375 12.5 13.5625 12.5 12.5V4.375H13.125C13.5 4.375 13.75 4.125 13.75 3.75C13.75 3.375 13.5 3.125 13.125 3.125ZM5.625 2.5C5.625 2.125 5.875 1.875 6.25 1.875H8.75C9.125 1.875 9.375 2.125 9.375 2.5V3.125H5.625V2.5ZM10.625 13.125C11 13.125 11.25 12.875 11.25 12.5V4.375H3.75V12.5C3.75 12.875 4 13.125 4.375 13.125H10.625ZM6.875 6.875V10.625C6.875 11 6.625 11.25 6.25 11.25C5.875 11.25 5.625 11 5.625 10.625V6.875C5.625 6.5 5.875 6.25 6.25 6.25C6.625 6.25 6.875 6.5 6.875 6.875ZM9.375 10.625V6.875C9.375 6.5 9.125 6.25 8.75 6.25C8.375 6.25 8.125 6.5 8.125 6.875V10.625C8.125 11 8.375 11.25 8.75 11.25C9.125 11.25 9.375 11 9.375 10.625Z" fill="black"/>
<mask id="mask0_554_13341" style="mask-type:luminance" maskUnits="userSpaceOnUse" x="1" y="0" width="13" height="15">
<path fill-rule="evenodd" clip-rule="evenodd" d="M13.125 3.125H10.625V2.5C10.625 1.4375 9.8125 0.625 8.75 0.625H6.25C5.1875 0.625 4.375 1.4375 4.375 2.5V3.125H1.875C1.5 3.125 1.25 3.375 1.25 3.75C1.25 4.125 1.5 4.375 1.875 4.375H2.5V12.5C2.5 13.5625 3.3125 14.375 4.375 14.375H10.625C11.6875 14.375 12.5 13.5625 12.5 12.5V4.375H13.125C13.5 4.375 13.75 4.125 13.75 3.75C13.75 3.375 13.5 3.125 13.125 3.125ZM5.625 2.5C5.625 2.125 5.875 1.875 6.25 1.875H8.75C9.125 1.875 9.375 2.125 9.375 2.5V3.125H5.625V2.5ZM10.625 13.125C11 13.125 11.25 12.875 11.25 12.5V4.375H3.75V12.5C3.75 12.875 4 13.125 4.375 13.125H10.625ZM6.875 6.875V10.625C6.875 11 6.625 11.25 6.25 11.25C5.875 11.25 5.625 11 5.625 10.625V6.875C5.625 6.5 5.875 6.25 6.25 6.25C6.625 6.25 6.875 6.5 6.875 6.875ZM9.375 10.625V6.875C9.375 6.5 9.125 6.25 8.75 6.25C8.375 6.25 8.125 6.5 8.125 6.875V10.625C8.125 11 8.375 11.25 8.75 11.25C9.125 11.25 9.375 11 9.375 10.625Z" fill="white"/>
</mask>
<g mask="url(#mask0_554_13341)">
<rect width="15" height="15" fill="#6E6B7B"/>
</g>
</svg>
